<svg xmlns="http://www.w3.org/2000/svg" viewBox="0 0 512 512">
  <rect width="512" height="512" rx="80" fill="#080c10"/>
  <!-- Left column -->
  <rect x="72" y="110" width="32" height="292" rx="8" fill="#e8a020"/>
  <!-- Right column -->
  <rect x="408" y="110" width="32" height="292" rx="8" fill="#e8a020"/>
  <!-- Arms left (4 arms symmetric) -->
  <rect x="104" y="186" width="116" height="16" rx="5" fill="#c87010" transform="rotate(-16 104 194)"/>
  <rect x="104" y="254" width="116" height="16" rx="5" fill="#c87010" transform="rotate(16 104 262)"/>
  <!-- Arms right -->
  <rect x="292" y="186" width="116" height="16" rx="5" fill="#c87010" transform="rotate(16 408 194)"/>
  <rect x="292" y="254" width="116" height="16" rx="5" fill="#c87010" transform="rotate(-16 408 262)"/>
  <!-- Car body -->
  <rect x="144" y="182" width="224" height="78" rx="22" fill="#1a2235"/>
  <rect x="162" y="150" width="188" height="58" rx="18" fill="#232d42"/>
  <!-- Windows -->
  <rect x="176" y="159" width="70" height="40" rx="9" fill="#3b82f6" fill-opacity="0.75"/>
  <rect x="266" y="159" width="70" height="40" rx="9" fill="#3b82f6" fill-opacity="0.75"/>
  <!-- Wheels -->
  <circle cx="186" cy="274" r="33" fill="#0d1117"/>
  <circle cx="186" cy="274" r="20" fill="#1a2235"/>
  <circle cx="186" cy="274" r="8" fill="#e8a020"/>
  <circle cx="326" cy="274" r="33" fill="#0d1117"/>
  <circle cx="326" cy="274" r="20" fill="#1a2235"/>
  <circle cx="326" cy="274" r="8" fill="#e8a020"/>
  <!-- Label bar -->
  <rect x="144" y="314" width="224" height="38" rx="7" fill="#e8a020"/>
  <!-- Update arrow (top-right) -->
  <path d="M438 70 Q474 95 454 132" stroke="#22c55e" stroke-width="11" fill="none" stroke-linecap="round"/>
  <polygon points="447,143 462,124 467,147" fill="#22c55e"/>
  <!-- Small plus on arrow -->
  <circle cx="460" cy="66" r="16" fill="#22c55e"/>
  <line x1="460" y1="58" x2="460" y2="74" stroke="#000" stroke-width="4" stroke-linecap="round"/>
  <line x1="452" y1="66" x2="468" y2="66" stroke="#000" stroke-width="4" stroke-linecap="round"/>
</svg>